<mxfile host="app.diagrams.net" modified="2024-04-12T20:49:29.580Z" agent="Mozilla/5.0 (Windows NT 10.0; Win64; x64) AppleWebKit/537.36 (KHTML, like Gecko) Chrome/123.0.0.0 Safari/537.36" etag="RrgK-sYQK6jWha2l1wB_" version="24.2.5" type="github">
  <diagram id="R2lEEEUBdFMjLlhIrx00" name="Page-1">
    <mxGraphModel dx="2163" dy="754" grid="1" gridSize="10" guides="1" tooltips="1" connect="1" arrows="1" fold="1" page="1" pageScale="1" pageWidth="850" pageHeight="1100" math="0" shadow="0" extFonts="Permanent Marker^https://fonts.googleapis.com/css?family=Permanent+Marker">
      <root>
        <mxCell id="0" />
        <mxCell id="1" parent="0" />
        <mxCell id="SMICs3OdVaP31qdcNFTw-10" style="edgeStyle=orthogonalEdgeStyle;rounded=0;orthogonalLoop=1;jettySize=auto;html=1;" edge="1" parent="1" source="SMICs3OdVaP31qdcNFTw-2">
          <mxGeometry relative="1" as="geometry">
            <mxPoint x="100" y="90" as="targetPoint" />
            <Array as="points">
              <mxPoint x="120" y="80" />
              <mxPoint x="120" y="80" />
            </Array>
          </mxGeometry>
        </mxCell>
        <mxCell id="SMICs3OdVaP31qdcNFTw-18" style="edgeStyle=orthogonalEdgeStyle;rounded=0;orthogonalLoop=1;jettySize=auto;html=1;" edge="1" parent="1" source="SMICs3OdVaP31qdcNFTw-2">
          <mxGeometry relative="1" as="geometry">
            <mxPoint x="100" y="95" as="targetPoint" />
            <Array as="points">
              <mxPoint x="120" y="110" />
              <mxPoint x="120" y="110" />
            </Array>
          </mxGeometry>
        </mxCell>
        <mxCell id="SMICs3OdVaP31qdcNFTw-2" value="User" style="rounded=0;whiteSpace=wrap;html=1;strokeColor=#000000;fillColor=#BDF6FF;" vertex="1" parent="1">
          <mxGeometry x="100" y="80" width="80" height="30" as="geometry" />
        </mxCell>
        <mxCell id="SMICs3OdVaP31qdcNFTw-3" value="u_email" style="ellipse;whiteSpace=wrap;html=1;strokeColor=#000000;fillColor=#BDF6FF;" vertex="1" parent="1">
          <mxGeometry x="-10" y="30" width="60" height="30" as="geometry" />
        </mxCell>
        <mxCell id="SMICs3OdVaP31qdcNFTw-4" value="u_ip" style="ellipse;whiteSpace=wrap;html=1;strokeColor=#000000;fillColor=#BDF6FF;" vertex="1" parent="1">
          <mxGeometry x="20" width="60" height="30" as="geometry" />
        </mxCell>
        <mxCell id="SMICs3OdVaP31qdcNFTw-5" value="u_psd" style="ellipse;whiteSpace=wrap;html=1;strokeColor=#000000;fillColor=#BDF6FF;" vertex="1" parent="1">
          <mxGeometry x="90" width="60" height="30" as="geometry" />
        </mxCell>
        <mxCell id="SMICs3OdVaP31qdcNFTw-6" value="u_name" style="ellipse;whiteSpace=wrap;html=1;strokeColor=#000000;fillColor=#BDF6FF;" vertex="1" parent="1">
          <mxGeometry x="-10" y="70" width="60" height="30" as="geometry" />
        </mxCell>
        <mxCell id="SMICs3OdVaP31qdcNFTw-7" value="u_adr" style="ellipse;whiteSpace=wrap;html=1;strokeColor=#000000;fillColor=#BDF6FF;" vertex="1" parent="1">
          <mxGeometry x="150" width="60" height="30" as="geometry" />
        </mxCell>
        <mxCell id="SMICs3OdVaP31qdcNFTw-8" value="&lt;u&gt;u_id&lt;/u&gt;" style="ellipse;whiteSpace=wrap;html=1;strokeColor=#000000;fillColor=#BDF6FF;verticalAlign=bottom;" vertex="1" parent="1">
          <mxGeometry y="110" width="60" height="30" as="geometry" />
        </mxCell>
        <mxCell id="SMICs3OdVaP31qdcNFTw-9" value="" style="endArrow=none;html=1;rounded=0;entryX=0;entryY=0.5;entryDx=0;entryDy=0;" edge="1" parent="1" target="SMICs3OdVaP31qdcNFTw-2">
          <mxGeometry width="50" height="50" relative="1" as="geometry">
            <mxPoint x="60" y="120" as="sourcePoint" />
            <mxPoint x="90" y="90" as="targetPoint" />
          </mxGeometry>
        </mxCell>
        <mxCell id="SMICs3OdVaP31qdcNFTw-14" value="" style="endArrow=none;html=1;rounded=0;entryX=0;entryY=0.5;entryDx=0;entryDy=0;" edge="1" parent="1" target="SMICs3OdVaP31qdcNFTw-2">
          <mxGeometry width="50" height="50" relative="1" as="geometry">
            <mxPoint x="50" y="80" as="sourcePoint" />
            <mxPoint x="100" y="110" as="targetPoint" />
            <Array as="points">
              <mxPoint x="50" y="80" />
            </Array>
          </mxGeometry>
        </mxCell>
        <mxCell id="SMICs3OdVaP31qdcNFTw-16" value="" style="endArrow=none;html=1;rounded=0;exitX=1;exitY=0.5;exitDx=0;exitDy=0;entryX=0;entryY=0.5;entryDx=0;entryDy=0;" edge="1" parent="1" source="SMICs3OdVaP31qdcNFTw-3" target="SMICs3OdVaP31qdcNFTw-2">
          <mxGeometry width="50" height="50" relative="1" as="geometry">
            <mxPoint x="100" y="60" as="sourcePoint" />
            <mxPoint x="150" y="10" as="targetPoint" />
            <Array as="points" />
          </mxGeometry>
        </mxCell>
        <mxCell id="SMICs3OdVaP31qdcNFTw-17" value="" style="endArrow=none;html=1;rounded=0;entryX=0.695;entryY=1.096;entryDx=0;entryDy=0;entryPerimeter=0;exitX=0;exitY=0.5;exitDx=0;exitDy=0;" edge="1" parent="1" source="SMICs3OdVaP31qdcNFTw-2" target="SMICs3OdVaP31qdcNFTw-4">
          <mxGeometry width="50" height="50" relative="1" as="geometry">
            <mxPoint x="90" y="90" as="sourcePoint" />
            <mxPoint x="140" y="40" as="targetPoint" />
          </mxGeometry>
        </mxCell>
        <mxCell id="SMICs3OdVaP31qdcNFTw-19" value="" style="endArrow=none;html=1;rounded=0;" edge="1" parent="1">
          <mxGeometry width="50" height="50" relative="1" as="geometry">
            <mxPoint x="115" y="80" as="sourcePoint" />
            <mxPoint x="165" y="30" as="targetPoint" />
          </mxGeometry>
        </mxCell>
        <mxCell id="SMICs3OdVaP31qdcNFTw-20" value="" style="endArrow=none;html=1;rounded=0;entryX=0.5;entryY=1;entryDx=0;entryDy=0;exitX=0.145;exitY=0.051;exitDx=0;exitDy=0;exitPerimeter=0;" edge="1" parent="1" source="SMICs3OdVaP31qdcNFTw-2" target="SMICs3OdVaP31qdcNFTw-5">
          <mxGeometry width="50" height="50" relative="1" as="geometry">
            <mxPoint x="100" y="90" as="sourcePoint" />
            <mxPoint x="140" y="40" as="targetPoint" />
          </mxGeometry>
        </mxCell>
        <mxCell id="SMICs3OdVaP31qdcNFTw-21" value="" style="endArrow=classic;html=1;rounded=0;" edge="1" parent="1">
          <mxGeometry width="50" height="50" relative="1" as="geometry">
            <mxPoint x="180" y="100" as="sourcePoint" />
            <mxPoint x="250" y="100" as="targetPoint" />
          </mxGeometry>
        </mxCell>
        <mxCell id="SMICs3OdVaP31qdcNFTw-22" value="Manages" style="rhombus;whiteSpace=wrap;html=1;fillColor=#BDF6FF;" vertex="1" parent="1">
          <mxGeometry x="250" y="60" width="80" height="80" as="geometry" />
        </mxCell>
        <mxCell id="SMICs3OdVaP31qdcNFTw-25" value="" style="endArrow=classic;html=1;rounded=0;exitX=1;exitY=0.5;exitDx=0;exitDy=0;" edge="1" parent="1" source="SMICs3OdVaP31qdcNFTw-22">
          <mxGeometry width="50" height="50" relative="1" as="geometry">
            <mxPoint x="390" y="270" as="sourcePoint" />
            <mxPoint x="390" y="100" as="targetPoint" />
          </mxGeometry>
        </mxCell>
        <mxCell id="SMICs3OdVaP31qdcNFTw-26" value="Categories" style="rounded=0;whiteSpace=wrap;html=1;fillColor=#BDF6FF;" vertex="1" parent="1">
          <mxGeometry x="390" y="80" width="70" height="30" as="geometry" />
        </mxCell>
        <mxCell id="SMICs3OdVaP31qdcNFTw-27" value="&lt;u&gt;c_id&lt;/u&gt;" style="ellipse;whiteSpace=wrap;html=1;strokeColor=#000000;fillColor=#BDF6FF;" vertex="1" parent="1">
          <mxGeometry x="330" y="10" width="60" height="30" as="geometry" />
        </mxCell>
        <mxCell id="SMICs3OdVaP31qdcNFTw-28" value="c_name" style="ellipse;whiteSpace=wrap;html=1;strokeColor=#000000;fillColor=#BDF6FF;" vertex="1" parent="1">
          <mxGeometry x="390" width="60" height="30" as="geometry" />
        </mxCell>
        <mxCell id="SMICs3OdVaP31qdcNFTw-29" value="brand" style="ellipse;whiteSpace=wrap;html=1;strokeColor=#000000;fillColor=#BDF6FF;" vertex="1" parent="1">
          <mxGeometry x="450" width="60" height="30" as="geometry" />
        </mxCell>
        <mxCell id="SMICs3OdVaP31qdcNFTw-30" value="" style="endArrow=classic;html=1;rounded=0;" edge="1" parent="1">
          <mxGeometry width="50" height="50" relative="1" as="geometry">
            <mxPoint x="460" y="94.6" as="sourcePoint" />
            <mxPoint x="510" y="94.6" as="targetPoint" />
            <Array as="points">
              <mxPoint x="460" y="94.6" />
            </Array>
          </mxGeometry>
        </mxCell>
        <mxCell id="SMICs3OdVaP31qdcNFTw-31" value="" style="endArrow=none;html=1;rounded=0;exitX=0.586;exitY=0.019;exitDx=0;exitDy=0;exitPerimeter=0;" edge="1" parent="1" source="SMICs3OdVaP31qdcNFTw-43">
          <mxGeometry width="50" height="50" relative="1" as="geometry">
            <mxPoint x="710" y="80" as="sourcePoint" />
            <mxPoint x="760" y="30" as="targetPoint" />
          </mxGeometry>
        </mxCell>
        <mxCell id="SMICs3OdVaP31qdcNFTw-32" value="" style="endArrow=none;html=1;rounded=0;entryX=0.624;entryY=0.989;entryDx=0;entryDy=0;entryPerimeter=0;exitX=0.605;exitY=-0.013;exitDx=0;exitDy=0;exitPerimeter=0;" edge="1" parent="1" source="SMICs3OdVaP31qdcNFTw-43" target="SMICs3OdVaP31qdcNFTw-48">
          <mxGeometry width="50" height="50" relative="1" as="geometry">
            <mxPoint x="680" y="80" as="sourcePoint" />
            <mxPoint x="730" y="30" as="targetPoint" />
          </mxGeometry>
        </mxCell>
        <mxCell id="SMICs3OdVaP31qdcNFTw-34" value="" style="endArrow=none;html=1;rounded=0;" edge="1" parent="1">
          <mxGeometry width="50" height="50" relative="1" as="geometry">
            <mxPoint x="420" y="80" as="sourcePoint" />
            <mxPoint x="470" y="30" as="targetPoint" />
          </mxGeometry>
        </mxCell>
        <mxCell id="SMICs3OdVaP31qdcNFTw-37" value="" style="endArrow=none;html=1;rounded=0;entryX=0.5;entryY=1;entryDx=0;entryDy=0;" edge="1" parent="1" target="SMICs3OdVaP31qdcNFTw-28">
          <mxGeometry width="50" height="50" relative="1" as="geometry">
            <mxPoint x="420" y="80" as="sourcePoint" />
            <mxPoint x="429" y="35" as="targetPoint" />
          </mxGeometry>
        </mxCell>
        <mxCell id="SMICs3OdVaP31qdcNFTw-39" value="" style="endArrow=none;html=1;rounded=0;entryX=1;entryY=1;entryDx=0;entryDy=0;" edge="1" parent="1" target="SMICs3OdVaP31qdcNFTw-27">
          <mxGeometry width="50" height="50" relative="1" as="geometry">
            <mxPoint x="420" y="80" as="sourcePoint" />
            <mxPoint x="430" y="40" as="targetPoint" />
          </mxGeometry>
        </mxCell>
        <mxCell id="SMICs3OdVaP31qdcNFTw-40" value="has" style="rhombus;whiteSpace=wrap;html=1;fillColor=#BDF6FF;" vertex="1" parent="1">
          <mxGeometry x="510" y="55" width="80" height="80" as="geometry" />
        </mxCell>
        <mxCell id="SMICs3OdVaP31qdcNFTw-42" value="" style="endArrow=classic;html=1;rounded=0;exitX=1;exitY=0.5;exitDx=0;exitDy=0;" edge="1" parent="1" source="SMICs3OdVaP31qdcNFTw-40">
          <mxGeometry width="50" height="50" relative="1" as="geometry">
            <mxPoint x="390" y="270" as="sourcePoint" />
            <mxPoint x="660" y="95" as="targetPoint" />
            <Array as="points" />
          </mxGeometry>
        </mxCell>
        <mxCell id="SMICs3OdVaP31qdcNFTw-127" style="edgeStyle=orthogonalEdgeStyle;rounded=0;orthogonalLoop=1;jettySize=auto;html=1;" edge="1" parent="1" source="SMICs3OdVaP31qdcNFTw-43">
          <mxGeometry relative="1" as="geometry">
            <mxPoint x="695" y="170" as="targetPoint" />
          </mxGeometry>
        </mxCell>
        <mxCell id="SMICs3OdVaP31qdcNFTw-43" value="Product" style="rounded=0;whiteSpace=wrap;html=1;fillColor=#BDF6FF;" vertex="1" parent="1">
          <mxGeometry x="660" y="75" width="70" height="35" as="geometry" />
        </mxCell>
        <mxCell id="SMICs3OdVaP31qdcNFTw-44" value="type" style="ellipse;whiteSpace=wrap;html=1;strokeColor=#000000;fillColor=#BDF6FF;" vertex="1" parent="1">
          <mxGeometry x="180" y="30" width="60" height="30" as="geometry" />
        </mxCell>
        <mxCell id="SMICs3OdVaP31qdcNFTw-45" value="" style="endArrow=none;html=1;rounded=0;entryX=0;entryY=0.5;entryDx=0;entryDy=0;exitX=0.193;exitY=0.029;exitDx=0;exitDy=0;exitPerimeter=0;" edge="1" parent="1" source="SMICs3OdVaP31qdcNFTw-2" target="SMICs3OdVaP31qdcNFTw-44">
          <mxGeometry width="50" height="50" relative="1" as="geometry">
            <mxPoint x="125" y="90" as="sourcePoint" />
            <mxPoint x="175" y="40" as="targetPoint" />
          </mxGeometry>
        </mxCell>
        <mxCell id="SMICs3OdVaP31qdcNFTw-46" value="&lt;u&gt;p_id&lt;/u&gt;" style="ellipse;whiteSpace=wrap;html=1;strokeColor=#000000;fillColor=#BDF6FF;" vertex="1" parent="1">
          <mxGeometry x="590" y="40" width="60" height="30" as="geometry" />
        </mxCell>
        <mxCell id="SMICs3OdVaP31qdcNFTw-47" value="p_name" style="ellipse;whiteSpace=wrap;html=1;strokeColor=#000000;fillColor=#BDF6FF;" vertex="1" parent="1">
          <mxGeometry x="610" y="10" width="60" height="30" as="geometry" />
        </mxCell>
        <mxCell id="SMICs3OdVaP31qdcNFTw-48" value="p_des" style="ellipse;whiteSpace=wrap;html=1;strokeColor=#000000;fillColor=#BDF6FF;" vertex="1" parent="1">
          <mxGeometry x="670" width="60" height="30" as="geometry" />
        </mxCell>
        <mxCell id="SMICs3OdVaP31qdcNFTw-53" value="p_price" style="ellipse;whiteSpace=wrap;html=1;strokeColor=#000000;fillColor=#BDF6FF;" vertex="1" parent="1">
          <mxGeometry x="730" width="60" height="30" as="geometry" />
        </mxCell>
        <mxCell id="SMICs3OdVaP31qdcNFTw-54" value="c_id" style="ellipse;whiteSpace=wrap;html=1;strokeColor=#000000;fillColor=#BDF6FF;" vertex="1" parent="1">
          <mxGeometry x="770" y="30" width="60" height="30" as="geometry" />
        </mxCell>
        <mxCell id="SMICs3OdVaP31qdcNFTw-55" value="p_quant" style="ellipse;whiteSpace=wrap;html=1;strokeColor=#000000;fillColor=#BDF6FF;" vertex="1" parent="1">
          <mxGeometry x="770" y="70" width="60" height="30" as="geometry" />
        </mxCell>
        <mxCell id="SMICs3OdVaP31qdcNFTw-56" value="" style="endArrow=none;html=1;rounded=0;exitX=1;exitY=1;exitDx=0;exitDy=0;entryX=0.614;entryY=0.003;entryDx=0;entryDy=0;entryPerimeter=0;" edge="1" parent="1" source="SMICs3OdVaP31qdcNFTw-46" target="SMICs3OdVaP31qdcNFTw-43">
          <mxGeometry width="50" height="50" relative="1" as="geometry">
            <mxPoint x="640" y="90" as="sourcePoint" />
            <mxPoint x="690" y="40" as="targetPoint" />
          </mxGeometry>
        </mxCell>
        <mxCell id="SMICs3OdVaP31qdcNFTw-57" value="" style="endArrow=none;html=1;rounded=0;exitX=0.728;exitY=0.955;exitDx=0;exitDy=0;exitPerimeter=0;entryX=0.614;entryY=-0.029;entryDx=0;entryDy=0;entryPerimeter=0;" edge="1" parent="1" source="SMICs3OdVaP31qdcNFTw-47" target="SMICs3OdVaP31qdcNFTw-43">
          <mxGeometry width="50" height="50" relative="1" as="geometry">
            <mxPoint x="650" y="80" as="sourcePoint" />
            <mxPoint x="700" y="70" as="targetPoint" />
            <Array as="points" />
          </mxGeometry>
        </mxCell>
        <mxCell id="SMICs3OdVaP31qdcNFTw-59" value="" style="endArrow=none;html=1;rounded=0;" edge="1" parent="1" target="SMICs3OdVaP31qdcNFTw-55">
          <mxGeometry width="50" height="50" relative="1" as="geometry">
            <mxPoint x="710" y="70" as="sourcePoint" />
            <mxPoint x="770" y="40" as="targetPoint" />
            <Array as="points">
              <mxPoint x="740" y="70" />
            </Array>
          </mxGeometry>
        </mxCell>
        <mxCell id="SMICs3OdVaP31qdcNFTw-60" value="" style="endArrow=none;html=1;rounded=0;entryX=0;entryY=0.5;entryDx=0;entryDy=0;exitX=0.605;exitY=0.003;exitDx=0;exitDy=0;exitPerimeter=0;" edge="1" parent="1" source="SMICs3OdVaP31qdcNFTw-43" target="SMICs3OdVaP31qdcNFTw-54">
          <mxGeometry width="50" height="50" relative="1" as="geometry">
            <mxPoint x="710" y="90" as="sourcePoint" />
            <mxPoint x="760" y="40" as="targetPoint" />
          </mxGeometry>
        </mxCell>
        <mxCell id="SMICs3OdVaP31qdcNFTw-61" value="Admin" style="text;html=1;align=center;verticalAlign=middle;resizable=0;points=[];autosize=1;strokeColor=none;fillColor=none;" vertex="1" parent="1">
          <mxGeometry x="170" y="78" width="60" height="30" as="geometry" />
        </mxCell>
        <mxCell id="SMICs3OdVaP31qdcNFTw-122" value="" style="endArrow=classic;html=1;rounded=0;exitX=-0.033;exitY=1.15;exitDx=0;exitDy=0;exitPerimeter=0;" edge="1" parent="1" source="SMICs3OdVaP31qdcNFTw-61">
          <mxGeometry width="50" height="50" relative="1" as="geometry">
            <mxPoint x="170" y="160" as="sourcePoint" />
            <mxPoint x="480" y="160" as="targetPoint" />
            <Array as="points">
              <mxPoint x="200" y="160" />
            </Array>
          </mxGeometry>
        </mxCell>
        <mxCell id="SMICs3OdVaP31qdcNFTw-126" style="edgeStyle=orthogonalEdgeStyle;rounded=0;orthogonalLoop=1;jettySize=auto;html=1;exitX=1;exitY=0.5;exitDx=0;exitDy=0;entryX=0.25;entryY=1;entryDx=0;entryDy=0;" edge="1" parent="1" source="SMICs3OdVaP31qdcNFTw-123" target="SMICs3OdVaP31qdcNFTw-43">
          <mxGeometry relative="1" as="geometry" />
        </mxCell>
        <mxCell id="SMICs3OdVaP31qdcNFTw-123" value="view" style="rhombus;whiteSpace=wrap;html=1;fillColor=#BDF6FF;" vertex="1" parent="1">
          <mxGeometry x="480" y="130" width="80" height="60" as="geometry" />
        </mxCell>
        <mxCell id="SMICs3OdVaP31qdcNFTw-128" value="in" style="rhombus;whiteSpace=wrap;html=1;fillColor=#BDF6FF;" vertex="1" parent="1">
          <mxGeometry x="660" y="170" width="65" height="60" as="geometry" />
        </mxCell>
        <mxCell id="SMICs3OdVaP31qdcNFTw-147" style="edgeStyle=orthogonalEdgeStyle;rounded=0;orthogonalLoop=1;jettySize=auto;html=1;" edge="1" parent="1" source="SMICs3OdVaP31qdcNFTw-129">
          <mxGeometry relative="1" as="geometry">
            <mxPoint x="695" y="400" as="targetPoint" />
          </mxGeometry>
        </mxCell>
        <mxCell id="SMICs3OdVaP31qdcNFTw-129" value="cart" style="rounded=0;whiteSpace=wrap;html=1;fillColor=#BDF6FF;" vertex="1" parent="1">
          <mxGeometry x="637.5" y="280" width="115" height="50" as="geometry" />
        </mxCell>
        <mxCell id="SMICs3OdVaP31qdcNFTw-133" style="edgeStyle=orthogonalEdgeStyle;rounded=0;orthogonalLoop=1;jettySize=auto;html=1;exitX=0.5;exitY=1;exitDx=0;exitDy=0;" edge="1" parent="1" source="SMICs3OdVaP31qdcNFTw-128">
          <mxGeometry relative="1" as="geometry">
            <mxPoint x="692" y="270" as="targetPoint" />
          </mxGeometry>
        </mxCell>
        <mxCell id="SMICs3OdVaP31qdcNFTw-134" value="&lt;u&gt;cart_id&lt;/u&gt;" style="ellipse;whiteSpace=wrap;html=1;strokeColor=#000000;fillColor=#BDF6FF;" vertex="1" parent="1">
          <mxGeometry x="725" y="220" width="65" height="30" as="geometry" />
        </mxCell>
        <mxCell id="SMICs3OdVaP31qdcNFTw-135" value="p_id" style="ellipse;whiteSpace=wrap;html=1;strokeColor=#000000;fillColor=#BDF6FF;" vertex="1" parent="1">
          <mxGeometry x="780" y="240" width="60" height="30" as="geometry" />
        </mxCell>
        <mxCell id="SMICs3OdVaP31qdcNFTw-136" value="p_qant" style="ellipse;whiteSpace=wrap;html=1;strokeColor=#000000;fillColor=#BDF6FF;" vertex="1" parent="1">
          <mxGeometry x="785" y="285" width="60" height="30" as="geometry" />
        </mxCell>
        <mxCell id="SMICs3OdVaP31qdcNFTw-137" value="u_adr" style="ellipse;whiteSpace=wrap;html=1;strokeColor=#000000;fillColor=#BDF6FF;" vertex="1" parent="1">
          <mxGeometry x="785" y="330" width="60" height="30" as="geometry" />
        </mxCell>
        <mxCell id="SMICs3OdVaP31qdcNFTw-140" value="" style="endArrow=none;html=1;rounded=0;" edge="1" parent="1">
          <mxGeometry width="50" height="50" relative="1" as="geometry">
            <mxPoint x="720" y="280" as="sourcePoint" />
            <mxPoint x="740" y="250" as="targetPoint" />
          </mxGeometry>
        </mxCell>
        <mxCell id="SMICs3OdVaP31qdcNFTw-141" value="" style="endArrow=none;html=1;rounded=0;entryX=0;entryY=0.5;entryDx=0;entryDy=0;" edge="1" parent="1" target="SMICs3OdVaP31qdcNFTw-135">
          <mxGeometry width="50" height="50" relative="1" as="geometry">
            <mxPoint x="720" y="280" as="sourcePoint" />
            <mxPoint x="770" y="230" as="targetPoint" />
          </mxGeometry>
        </mxCell>
        <mxCell id="SMICs3OdVaP31qdcNFTw-144" value="" style="endArrow=none;html=1;rounded=0;entryX=0;entryY=0;entryDx=0;entryDy=0;exitX=1;exitY=0.25;exitDx=0;exitDy=0;" edge="1" parent="1" source="SMICs3OdVaP31qdcNFTw-129" target="SMICs3OdVaP31qdcNFTw-136">
          <mxGeometry width="50" height="50" relative="1" as="geometry">
            <mxPoint x="720" y="285" as="sourcePoint" />
            <mxPoint x="770" y="235" as="targetPoint" />
          </mxGeometry>
        </mxCell>
        <mxCell id="SMICs3OdVaP31qdcNFTw-146" value="" style="endArrow=none;html=1;rounded=0;exitX=1;exitY=0.25;exitDx=0;exitDy=0;" edge="1" parent="1" source="SMICs3OdVaP31qdcNFTw-129">
          <mxGeometry width="50" height="50" relative="1" as="geometry">
            <mxPoint x="735" y="390" as="sourcePoint" />
            <mxPoint x="785" y="340" as="targetPoint" />
          </mxGeometry>
        </mxCell>
        <mxCell id="SMICs3OdVaP31qdcNFTw-149" style="edgeStyle=orthogonalEdgeStyle;rounded=0;orthogonalLoop=1;jettySize=auto;html=1;exitX=0;exitY=0.5;exitDx=0;exitDy=0;" edge="1" parent="1" source="SMICs3OdVaP31qdcNFTw-148">
          <mxGeometry relative="1" as="geometry">
            <mxPoint x="620" y="439.75" as="targetPoint" />
          </mxGeometry>
        </mxCell>
        <mxCell id="SMICs3OdVaP31qdcNFTw-148" value="checkout" style="rhombus;whiteSpace=wrap;html=1;align=center;fillColor=#BDF6FF;" vertex="1" parent="1">
          <mxGeometry x="655" y="400" width="80" height="80" as="geometry" />
        </mxCell>
        <mxCell id="SMICs3OdVaP31qdcNFTw-186" style="edgeStyle=orthogonalEdgeStyle;rounded=0;orthogonalLoop=1;jettySize=auto;html=1;exitX=0;exitY=0.5;exitDx=0;exitDy=0;" edge="1" parent="1" source="SMICs3OdVaP31qdcNFTw-151" target="SMICs3OdVaP31qdcNFTw-183">
          <mxGeometry relative="1" as="geometry">
            <mxPoint x="410" y="460" as="targetPoint" />
          </mxGeometry>
        </mxCell>
        <mxCell id="SMICs3OdVaP31qdcNFTw-151" value="Order" style="rounded=0;whiteSpace=wrap;html=1;fillColor=#BDF6FF;" vertex="1" parent="1">
          <mxGeometry x="500" y="410" width="120" height="60" as="geometry" />
        </mxCell>
        <mxCell id="SMICs3OdVaP31qdcNFTw-153" value="&lt;u&gt;o_id&lt;/u&gt;" style="ellipse;whiteSpace=wrap;html=1;strokeColor=#000000;fillColor=#BDF6FF;" vertex="1" parent="1">
          <mxGeometry x="650" y="500" width="60" height="30" as="geometry" />
        </mxCell>
        <mxCell id="SMICs3OdVaP31qdcNFTw-154" value="U_Id" style="ellipse;whiteSpace=wrap;html=1;strokeColor=#000000;fillColor=#BDF6FF;" vertex="1" parent="1">
          <mxGeometry x="637.5" y="535" width="60" height="30" as="geometry" />
        </mxCell>
        <mxCell id="SMICs3OdVaP31qdcNFTw-155" value="p_num" style="ellipse;whiteSpace=wrap;html=1;strokeColor=#000000;fillColor=#BDF6FF;" vertex="1" parent="1">
          <mxGeometry x="600" y="565" width="60" height="30" as="geometry" />
        </mxCell>
        <mxCell id="SMICs3OdVaP31qdcNFTw-156" value="o_amt" style="ellipse;whiteSpace=wrap;html=1;strokeColor=#000000;fillColor=#BDF6FF;" vertex="1" parent="1">
          <mxGeometry x="540" y="580" width="60" height="30" as="geometry" />
        </mxCell>
        <mxCell id="SMICs3OdVaP31qdcNFTw-157" value="o_date" style="ellipse;whiteSpace=wrap;html=1;strokeColor=#000000;fillColor=#BDF6FF;" vertex="1" parent="1">
          <mxGeometry x="480" y="570" width="60" height="30" as="geometry" />
        </mxCell>
        <mxCell id="SMICs3OdVaP31qdcNFTw-158" value="o_status" style="ellipse;whiteSpace=wrap;html=1;strokeColor=#000000;fillColor=#BDF6FF;" vertex="1" parent="1">
          <mxGeometry x="425" y="550" width="60" height="30" as="geometry" />
        </mxCell>
        <mxCell id="SMICs3OdVaP31qdcNFTw-159" value="" style="endArrow=none;html=1;rounded=0;exitX=1;exitY=0;exitDx=0;exitDy=0;entryX=0.408;entryY=1.025;entryDx=0;entryDy=0;entryPerimeter=0;" edge="1" parent="1" source="SMICs3OdVaP31qdcNFTw-158" target="SMICs3OdVaP31qdcNFTw-151">
          <mxGeometry width="50" height="50" relative="1" as="geometry">
            <mxPoint x="485" y="530" as="sourcePoint" />
            <mxPoint x="535" y="480" as="targetPoint" />
          </mxGeometry>
        </mxCell>
        <mxCell id="SMICs3OdVaP31qdcNFTw-160" value="" style="endArrow=none;html=1;rounded=0;exitX=0.5;exitY=0;exitDx=0;exitDy=0;" edge="1" parent="1" source="SMICs3OdVaP31qdcNFTw-157">
          <mxGeometry width="50" height="50" relative="1" as="geometry">
            <mxPoint x="525" y="550" as="sourcePoint" />
            <mxPoint x="550" y="470" as="targetPoint" />
          </mxGeometry>
        </mxCell>
        <mxCell id="SMICs3OdVaP31qdcNFTw-161" value="" style="endArrow=none;html=1;rounded=0;" edge="1" parent="1">
          <mxGeometry width="50" height="50" relative="1" as="geometry">
            <mxPoint x="560" y="575" as="sourcePoint" />
            <mxPoint x="550" y="470" as="targetPoint" />
          </mxGeometry>
        </mxCell>
        <mxCell id="SMICs3OdVaP31qdcNFTw-162" value="" style="endArrow=none;html=1;rounded=0;" edge="1" parent="1">
          <mxGeometry width="50" height="50" relative="1" as="geometry">
            <mxPoint x="610" y="565" as="sourcePoint" />
            <mxPoint x="550" y="470" as="targetPoint" />
          </mxGeometry>
        </mxCell>
        <mxCell id="SMICs3OdVaP31qdcNFTw-164" value="" style="endArrow=none;html=1;rounded=0;" edge="1" parent="1">
          <mxGeometry width="50" height="50" relative="1" as="geometry">
            <mxPoint x="637.5" y="550" as="sourcePoint" />
            <mxPoint x="550" y="470" as="targetPoint" />
          </mxGeometry>
        </mxCell>
        <mxCell id="SMICs3OdVaP31qdcNFTw-165" value="" style="endArrow=none;html=1;rounded=0;" edge="1" parent="1">
          <mxGeometry width="50" height="50" relative="1" as="geometry">
            <mxPoint x="650" y="510" as="sourcePoint" />
            <mxPoint x="550" y="470" as="targetPoint" />
          </mxGeometry>
        </mxCell>
        <mxCell id="SMICs3OdVaP31qdcNFTw-166" value="lif not log in then log in&amp;nbsp;" style="text;html=1;align=center;verticalAlign=middle;resizable=0;points=[];autosize=1;strokeColor=none;fillColor=none;" vertex="1" parent="1">
          <mxGeometry x="690" y="380" width="150" height="30" as="geometry" />
        </mxCell>
        <mxCell id="SMICs3OdVaP31qdcNFTw-182" style="edgeStyle=orthogonalEdgeStyle;rounded=0;orthogonalLoop=1;jettySize=auto;html=1;exitX=1;exitY=0.5;exitDx=0;exitDy=0;" edge="1" parent="1" source="SMICs3OdVaP31qdcNFTw-168" target="SMICs3OdVaP31qdcNFTw-183">
          <mxGeometry relative="1" as="geometry">
            <mxPoint x="360" y="460" as="targetPoint" />
          </mxGeometry>
        </mxCell>
        <mxCell id="SMICs3OdVaP31qdcNFTw-168" value="payment" style="rounded=0;whiteSpace=wrap;html=1;fillColor=#BDF6FF;" vertex="1" parent="1">
          <mxGeometry x="145" y="480" width="120" height="60" as="geometry" />
        </mxCell>
        <mxCell id="SMICs3OdVaP31qdcNFTw-169" value="&lt;u&gt;pay_id&lt;/u&gt;" style="ellipse;whiteSpace=wrap;html=1;strokeColor=#000000;fillColor=#BDF6FF;" vertex="1" parent="1">
          <mxGeometry x="295" y="570" width="60" height="30" as="geometry" />
        </mxCell>
        <mxCell id="SMICs3OdVaP31qdcNFTw-170" value="U_Id" style="ellipse;whiteSpace=wrap;html=1;strokeColor=#000000;fillColor=#BDF6FF;" vertex="1" parent="1">
          <mxGeometry x="282.5" y="605" width="60" height="30" as="geometry" />
        </mxCell>
        <mxCell id="SMICs3OdVaP31qdcNFTw-171" value="o_id" style="ellipse;whiteSpace=wrap;html=1;strokeColor=#000000;fillColor=#BDF6FF;" vertex="1" parent="1">
          <mxGeometry x="245" y="635" width="60" height="30" as="geometry" />
        </mxCell>
        <mxCell id="SMICs3OdVaP31qdcNFTw-172" value="o_amt" style="ellipse;whiteSpace=wrap;html=1;strokeColor=#000000;fillColor=#BDF6FF;" vertex="1" parent="1">
          <mxGeometry x="185" y="650" width="60" height="30" as="geometry" />
        </mxCell>
        <mxCell id="SMICs3OdVaP31qdcNFTw-173" value="invoice_num" style="ellipse;whiteSpace=wrap;html=1;strokeColor=#000000;fillColor=#BDF6FF;" vertex="1" parent="1">
          <mxGeometry x="125" y="640" width="60" height="30" as="geometry" />
        </mxCell>
        <mxCell id="SMICs3OdVaP31qdcNFTw-174" value="date" style="ellipse;whiteSpace=wrap;html=1;strokeColor=#000000;fillColor=#BDF6FF;" vertex="1" parent="1">
          <mxGeometry x="70" y="620" width="60" height="30" as="geometry" />
        </mxCell>
        <mxCell id="SMICs3OdVaP31qdcNFTw-175" value="" style="endArrow=none;html=1;rounded=0;exitX=1;exitY=0;exitDx=0;exitDy=0;entryX=0.408;entryY=1.025;entryDx=0;entryDy=0;entryPerimeter=0;" edge="1" parent="1" source="SMICs3OdVaP31qdcNFTw-174" target="SMICs3OdVaP31qdcNFTw-168">
          <mxGeometry width="50" height="50" relative="1" as="geometry">
            <mxPoint x="130" y="600" as="sourcePoint" />
            <mxPoint x="180" y="550" as="targetPoint" />
          </mxGeometry>
        </mxCell>
        <mxCell id="SMICs3OdVaP31qdcNFTw-176" value="" style="endArrow=none;html=1;rounded=0;exitX=0.5;exitY=0;exitDx=0;exitDy=0;" edge="1" parent="1" source="SMICs3OdVaP31qdcNFTw-173">
          <mxGeometry width="50" height="50" relative="1" as="geometry">
            <mxPoint x="170" y="620" as="sourcePoint" />
            <mxPoint x="195" y="540" as="targetPoint" />
          </mxGeometry>
        </mxCell>
        <mxCell id="SMICs3OdVaP31qdcNFTw-177" value="" style="endArrow=none;html=1;rounded=0;" edge="1" parent="1">
          <mxGeometry width="50" height="50" relative="1" as="geometry">
            <mxPoint x="205" y="645" as="sourcePoint" />
            <mxPoint x="195" y="540" as="targetPoint" />
          </mxGeometry>
        </mxCell>
        <mxCell id="SMICs3OdVaP31qdcNFTw-178" value="" style="endArrow=none;html=1;rounded=0;" edge="1" parent="1">
          <mxGeometry width="50" height="50" relative="1" as="geometry">
            <mxPoint x="255" y="635" as="sourcePoint" />
            <mxPoint x="195" y="540" as="targetPoint" />
          </mxGeometry>
        </mxCell>
        <mxCell id="SMICs3OdVaP31qdcNFTw-179" value="" style="endArrow=none;html=1;rounded=0;" edge="1" parent="1">
          <mxGeometry width="50" height="50" relative="1" as="geometry">
            <mxPoint x="282.5" y="620" as="sourcePoint" />
            <mxPoint x="195" y="540" as="targetPoint" />
          </mxGeometry>
        </mxCell>
        <mxCell id="SMICs3OdVaP31qdcNFTw-180" value="" style="endArrow=none;html=1;rounded=0;" edge="1" parent="1">
          <mxGeometry width="50" height="50" relative="1" as="geometry">
            <mxPoint x="295" y="580" as="sourcePoint" />
            <mxPoint x="195" y="540" as="targetPoint" />
          </mxGeometry>
        </mxCell>
        <mxCell id="SMICs3OdVaP31qdcNFTw-181" style="edgeStyle=orthogonalEdgeStyle;rounded=0;orthogonalLoop=1;jettySize=auto;html=1;exitX=0.5;exitY=1;exitDx=0;exitDy=0;entryX=0.375;entryY=-0.042;entryDx=0;entryDy=0;entryPerimeter=0;" edge="1" parent="1" source="SMICs3OdVaP31qdcNFTw-2" target="SMICs3OdVaP31qdcNFTw-168">
          <mxGeometry relative="1" as="geometry" />
        </mxCell>
        <mxCell id="SMICs3OdVaP31qdcNFTw-183" value="confirm" style="rhombus;whiteSpace=wrap;html=1;fillColor=#BDF6FF;" vertex="1" parent="1">
          <mxGeometry x="320" y="420" width="100" height="90" as="geometry" />
        </mxCell>
        <mxCell id="SMICs3OdVaP31qdcNFTw-184" value="make" style="rhombus;whiteSpace=wrap;html=1;fillColor=#BDF6FF;" vertex="1" parent="1">
          <mxGeometry x="120" y="265" width="80" height="80" as="geometry" />
        </mxCell>
      </root>
    </mxGraphModel>
  </diagram>
</mxfile>
